<?xml version="1.0" standalone="no"?>
<!DOCTYPE svg PUBLIC "-//W3C//DTD SVG 20010904//EN"
        "http://www.w3.org/TR/2001/REC-SVG-20010904/DTD/svg10.dtd">
<svg version="1.0" xmlns="http://www.w3.org/2000/svg"
     width="300.000000pt" height="300.000000pt" viewBox="0 0 300.000000 300.000000"
     preserveAspectRatio="xMidYMid meet">
    <metadata>
        Created by potrace 1.11, written by Peter Selinger 2001-2013
    </metadata>
    <g transform="translate(0.000000,300.000000) scale(0.100000,-0.100000)"
       fill="#000000" stroke="none">
        <path d="M1490 2943 c-78 -12 -215 -55 -230 -72 -3 -3 -18 -13 -35 -21 -16 -8
-62 -47 -101 -86 -52 -53 -81 -93 -112 -155 -23 -46 -43 -96 -46 -111 -2 -15
-7 -31 -9 -35 -5 -8 -16 -66 -22 -118 -2 -16 -5 -121 -6 -232 l-1 -203 -192 0
c-105 0 -196 -4 -202 -8 -26 -17 -30 -57 -28 -287 1 -132 2 -248 3 -257 2 -36
48 -44 237 -43 l182 0 -1 -600 c0 -330 3 -610 7 -622 4 -12 17 -25 29 -29 12
-4 132 -8 267 -9 241 -1 245 0 268 22 12 12 22 32 23 45 4 117 3 148 -3 148
-4 0 -3 13 2 29 4 15 4 34 0 41 -5 7 -6 19 -3 27 3 7 6 224 7 481 l1 467 215
1 c207 0 266 6 255 24 -3 5 -1 11 3 14 5 3 9 120 10 261 1 241 0 257 -19 276
-18 18 -34 19 -243 19 l-224 0 2 183 c2 203 11 238 66 271 38 22 52 23 240 25
121 1 159 5 175 17 19 14 20 27 20 262 1 232 0 248 -19 265 -17 15 -43 17
-255 16 -130 -1 -247 -3 -261 -6z"/>
        <path d="M1721 1059 c-16 -6 -17 -39 -17 -486 1 -373 4 -483 14 -495 18 -23
169 -20 186 3 8 11 11 70 11 188 0 94 2 171 5 172 34 5 50 4 50 -4 0 -6 5 -6
13 -1 15 11 67 11 85 1 6 -5 12 -5 12 0 0 4 35 9 78 10 137 3 239 59 291 161
12 23 19 42 15 42 -4 0 -2 6 3 13 5 6 9 21 8 32 0 11 3 28 8 38 4 9 4 17 0 17
-5 0 -8 12 -7 28 1 36 -21 117 -40 147 -42 64 -130 117 -217 131 -56 9 -475
11 -498 3z m453 -180 c46 -13 71 -34 85 -72 27 -70 2 -146 -58 -176 -31 -16
-57 -19 -161 -18 l-125 2 -1 130 c0 72 1 133 3 138 6 11 213 8 257 -4z"/>
    </g>
</svg>
